# xmcd CD database file
#
# Track frame offsets:
#	150
#	25742
#	49585
#	71872
#	92077
#	114707
#	139872
#	164402
#	186097
#	199730
#	202977
#
# Disc length: 3111 seconds
#
# Revision: 1
# Processed by: cddbd v1.5.1PL0 Copyright (c) Steve Scherf et al.
# Submitted via: CDex 1.51
#
DISCID=9c0c250b
DTITLE=加瀬竜哉 - Sister Leesa
DYEAR=1900
DGENRE=Hard Rock
TTITLE0=The Sinner Of Love
TTITLE1=Bloody Sky,Bloody Cry
TTITLE2=Al・la's Eye
TTITLE3=Magic
TTITLE4=Rock The Planet
TTITLE5=Deep Inside Oh! Mama
TTITLE6=Sarah-In The Last X'mas
TTITLE7=Chance To Survive
TTITLE8=Call Your Name
TTITLE9=Sanctuary
TTITLE10=Sister Leesa
EXTD=
EXTT0=
EXTT1=
EXTT2=
EXTT3=
EXTT4=
EXTT5=
EXTT6=
EXTT7=
EXTT8=
EXTT9=
EXTT10=
PLAYORDER=
